<svg xmlns="http://www.w3.org/2000/svg" width="68.532" height="60.031" viewBox="0 0 68.532 60.031">
  <g id="Group_204535" data-name="Group 204535" transform="translate(-86.514 -516.982)">
    <path id="Path_198247" data-name="Path 198247" d="M686.062,202.7c-8.089-6.84-19.594-7.145-29.331-3.534A55.985,55.985,0,0,0,630.3,220.006a24.323,24.323,0,0,0-3.2,6.913,21.091,21.091,0,0,0,2.956,17.38,29.077,29.077,0,0,0,12.9,10.071c21.12,8.781,46.943-6.3,51.487-28.263a23.524,23.524,0,0,0,.39-6.646A24.5,24.5,0,0,0,686.062,202.7Z" transform="translate(-539.865 320.101)" fill="#d3f5f6"/>
    <path id="Icon_awesome-id-card" data-name="Icon awesome-id-card" d="M43.88,2.25H3.989A3.99,3.99,0,0,0,0,6.239v1.33H47.869V6.239A3.99,3.99,0,0,0,43.88,2.25ZM0,35.493a3.99,3.99,0,0,0,3.989,3.989H43.88a3.99,3.99,0,0,0,3.989-3.989V10.228H0ZM29.254,16.212a.667.667,0,0,1,.665-.665H41.886a.667.667,0,0,1,.665.665v1.33a.667.667,0,0,1-.665.665H29.918a.667.667,0,0,1-.665-.665Zm0,5.319a.667.667,0,0,1,.665-.665H41.886a.667.667,0,0,1,.665.665v1.33a.667.667,0,0,1-.665.665H29.918a.667.667,0,0,1-.665-.665Zm0,5.319a.667.667,0,0,1,.665-.665H41.886a.667.667,0,0,1,.665.665v1.33a.667.667,0,0,1-.665.665H29.918a.667.667,0,0,1-.665-.665Zm-14.627-11.3a5.319,5.319,0,1,1-5.319,5.319A5.324,5.324,0,0,1,14.627,15.547Zm-9.05,16.97a5.326,5.326,0,0,1,5.061-3.673h.681a8.56,8.56,0,0,0,6.615,0h.681a5.326,5.326,0,0,1,5.061,3.673,1.309,1.309,0,0,1-1.3,1.646H6.873A1.312,1.312,0,0,1,5.576,32.517Z" transform="translate(89.531 522.645)" fill="#25cad2"/>
  </g>
</svg>
